<svg width="459" height="171" viewBox="0 0 459 171" fill="none" xmlns="http://www.w3.org/2000/svg">
<mask id="mask0_21_380" style="mask-type:luminance" maskUnits="userSpaceOnUse" x="33" y="0" width="169" height="149">
<path d="M33.3333 0.666626H201.333V148.667H33.3333V0.666626Z" fill="white"/>
</mask>
<g mask="url(#mask0_21_380)">
<mask id="mask1_21_380" style="mask-type:luminance" maskUnits="userSpaceOnUse" x="6" y="-30" width="220" height="222">
<path d="M84.3594 191.177L6.5052 47.599L148.078 -29.1719L225.938 114.406L84.3594 191.177Z" fill="white"/>
</mask>
<g mask="url(#mask1_21_380)">
<mask id="mask2_21_380" style="mask-type:luminance" maskUnits="userSpaceOnUse" x="6" y="-30" width="220" height="222">
<path d="M6.45833 47.5104L84.3125 191.089L225.891 114.323L148.036 -29.2552L6.45833 47.5104Z" fill="white"/>
</mask>
<g mask="url(#mask2_21_380)">
<path d="M136.526 137.839C135.979 138.042 134.198 138.911 131.214 140.156C128.187 141.328 123.958 142.87 118.448 143.792C112.984 144.786 106.276 145.234 98.9323 144.146C91.5885 143.063 83.5677 140.557 75.8385 135.833C71.9635 133.526 68.2083 130.583 64.7344 127.12C61.2604 123.656 58.1042 119.734 55.4479 115.354C52.8281 111.052 50.6771 106.214 49.0989 101.057C47.5989 95.8646 46.6771 90.3594 46.6406 84.75C46.4896 73.5677 49.3958 62.1354 55.5208 52.1511C58.5312 47.1406 62.401 42.5052 66.8125 38.5208C68.9948 36.4896 71.4115 34.7136 73.7917 33.0469C76.2135 31.4531 78.7812 29.9636 81.474 28.6927C86.7396 26.1198 92.5521 24.375 98.4271 23.4427C104.302 22.5052 110.281 22.4583 116.068 23.2604C127.604 24.7969 138.505 29.6771 147.161 36.8125C151.526 40.3594 155.281 44.5156 158.344 48.9531C161.37 53.3229 163.849 57.8906 165.635 62.7396C167.49 67.5521 168.578 72.5 169.219 77.3125C169.786 82.1719 169.792 86.8594 169.276 91.2656C168.281 100.161 165.516 108.042 162.036 114.438C158.557 120.828 154.328 125.839 150.573 129.474C148.677 131.344 146.844 132.807 145.26 134.042C143.604 135.318 142.234 136.245 141.042 136.99C139.844 137.729 138.943 138.313 138.292 138.667C137.635 139.021 137.349 139.177 137.349 139.177C144.656 141.411 152.995 142.422 161.797 141.688C170.594 140.953 179.818 138.578 188.911 134.401C194.37 124.214 197.844 113.318 199.323 102.193C200.797 91.0677 200.198 79.7552 197.667 69.0208C196.417 63.599 194.615 58.3802 192.495 53.4323C191.417 50.9167 190.187 48.4844 188.932 46.1667C187.672 43.8438 186.229 41.5313 184.755 39.3281C178.849 30.5156 171.245 22.7188 162.589 16.6198C145.344 4.38021 124.536 -0.760408 104.599 1.41667C94.5208 2.56251 84.8333 5.46876 76.2292 9.85417C71.9844 12.0625 67.8958 14.5625 64.1146 17.4583C60.3385 20.349 56.8229 23.5677 53.5833 27.1094C47.1719 34.1511 42.2031 42.2917 38.8281 50.7865C35.4531 59.2761 33.7604 68.2656 33.6146 77.1719C33.5364 86.0313 35.0885 94.9531 38.0208 103.125C41.0625 111.328 45.401 118.646 50.8906 124.958C56.3802 131.276 63.0573 136.661 70.1979 140.49C77.3802 144.385 85.1042 146.859 92.8542 147.818C100.641 148.854 108.49 148.443 116 146.719C123.437 145.031 130.5 141.953 136.526 137.839Z" fill="#FFD600"/>
</g>
</g>
</g>
<mask id="mask3_21_380" style="mask-type:luminance" maskUnits="userSpaceOnUse" x="69" y="36" width="95" height="81">
<path d="M69.3333 36.6666H164V116.667H69.3333V36.6666Z" fill="white"/>
</mask>
<g mask="url(#mask3_21_380)">
<mask id="mask4_21_380" style="mask-type:luminance" maskUnits="userSpaceOnUse" x="6" y="-30" width="220" height="222">
<path d="M84.3594 191.177L6.5052 47.599L148.078 -29.1719L225.938 114.406L84.3594 191.177Z" fill="white"/>
</mask>
<g mask="url(#mask4_21_380)">
<mask id="mask5_21_380" style="mask-type:luminance" maskUnits="userSpaceOnUse" x="6" y="-30" width="220" height="222">
<path d="M6.45833 47.5104L84.3125 191.089L225.891 114.323L148.036 -29.2552L6.45833 47.5104Z" fill="white"/>
</mask>
<g mask="url(#mask5_21_380)">
<path d="M119.224 105.927C118.964 105.974 118.203 106.292 117.036 106.739C115.797 107.224 114.115 107.76 111.875 108.13C109.635 108.5 106.979 108.625 104.052 108.239C101.083 107.786 97.9115 106.781 94.75 104.932C91.6615 103.042 88.651 100.26 86.5781 96.7864C84.4323 93.3489 83.0365 89.0416 82.9219 84.4999C82.8073 79.9634 83.9844 75.3853 86.4323 71.2447C88.8073 67.1405 92.5677 63.6926 96.8906 61.6301C101.177 59.4947 106.281 58.6978 110.99 59.2395C115.734 59.8593 120.229 61.7395 123.797 64.6874C125.615 66.1405 127.187 67.8228 128.464 69.6614C129.745 71.4999 130.766 73.3853 131.531 75.3176C133.104 79.2551 133.5 83.4478 133.182 87.1874C132.865 90.927 131.719 94.177 130.292 96.9218C128.87 99.6614 127.167 101.713 125.557 103.245C124.771 104.042 123.979 104.661 123.333 105.198C122.687 105.739 122.073 106.167 121.568 106.437C120.589 107.062 120.01 107.375 120.01 107.375C124.562 111.104 130.344 113.974 136.854 115.422C143.359 116.864 150.526 116.922 157.969 115.417C164.297 102.51 165.438 87.9999 161.797 75.052C159.995 68.6145 157.026 62.6197 153.281 57.6145C149.495 52.5364 144.771 48.1509 139.604 44.8489C129.156 38.2186 117.047 35.9634 105.917 37.7759C100.339 38.7343 95.0885 40.6457 90.4531 43.3489C85.8854 46.0103 81.9427 49.4634 78.7187 53.5572C75.526 57.5416 73.1302 62.1249 71.6615 66.677C70.224 71.302 69.6823 76.0103 69.9062 80.578C70.2031 85.1093 71.3125 89.578 73.1823 93.5364C75.0469 97.4999 77.4479 100.891 80.3854 103.708C83.3229 106.531 86.7187 108.818 90.3125 110.245C93.8281 111.719 97.5104 112.443 101.021 112.51C104.526 112.578 108.052 111.984 111.151 110.771C114.214 109.672 116.964 107.995 119.224 105.927Z" fill="#FFD600"/>
</g>
</g>
</g>
<mask id="mask6_21_380" style="mask-type:luminance" maskUnits="userSpaceOnUse" x="102" y="71" width="28" height="26">
<path d="M102.667 71.3334H129.333V96.6667H102.667V71.3334Z" fill="white"/>
</mask>
<g mask="url(#mask6_21_380)">
<mask id="mask7_21_380" style="mask-type:luminance" maskUnits="userSpaceOnUse" x="6" y="-30" width="220" height="222">
<path d="M84.3594 191.177L6.5052 47.599L148.078 -29.1719L225.937 114.406L84.3594 191.177Z" fill="white"/>
</mask>
<g mask="url(#mask7_21_380)">
<mask id="mask8_21_380" style="mask-type:luminance" maskUnits="userSpaceOnUse" x="6" y="-30" width="220" height="222">
<path d="M6.45832 47.5104L84.3125 191.089L225.891 114.323L148.036 -29.2552L6.45832 47.5104Z" fill="white"/>
</mask>
<g mask="url(#mask8_21_380)">
<path d="M107.344 84.0208C107.344 84.0208 107.344 84.0208 107.385 84.0937C107.385 84.0937 107.385 84.0937 107.422 84.1666C107.422 84.1666 107.458 84.0572 107.385 84.0937C107.385 84.0937 107.312 84.1353 107.458 84.0572C107.531 84.0156 107.458 84.0572 107.385 84.0937L107.312 84.1353C107.422 84.1666 107.385 84.0937 107.312 84.1353L107.349 84.2083C107.391 84.2812 107.391 84.2812 107.349 84.2083C107.349 84.2083 107.349 84.2083 107.422 84.1666C107.422 84.1666 107.422 84.1666 107.349 84.2083C107.349 84.2083 107.208 84.2864 107.281 84.2447L107.349 84.2083C107.24 84.1718 107.464 84.2395 107.391 84.2812C107.422 84.1666 107.344 84.0208 107.344 84.0208L107.385 84.0937L107.651 84.4166C108.042 84.9583 108.5 85.4635 109 86.0364C109.917 87.0364 110.911 87.9999 111.974 88.927C116.193 92.552 121.339 95.1145 127.135 96.2864C128.833 90.7656 128.208 85.2864 126 81.0416C123.792 76.7916 120.229 74.0312 116.651 72.9687C113.031 71.8333 109.547 72.5051 107.198 74.0624C104.812 75.5416 103.599 77.9843 103.557 79.9791C103.51 81.9739 104.672 83.5937 106.052 84.0676C106.391 84.1666 106.797 84.2239 107.167 84.2135C107.24 84.1718 107.349 84.2083 107.422 84.1666C107.495 84.1301 107.495 84.1301 107.495 84.1301L107.568 84.0885C107.641 84.052 107.495 84.1301 107.495 84.1301C107.531 84.0156 107.391 84.2812 107.495 84.1301C107.385 84.0937 107.432 84.3541 107.344 84.0208Z" fill="#FFD600"/>
</g>
</g>
</g>
<mask id="mask9_21_380" style="mask-type:luminance" maskUnits="userSpaceOnUse" x="106" y="83" width="2" height="2">
<path d="M106.667 83.3334H108V84.6667H106.667V83.3334Z" fill="white"/>
</mask>
<g mask="url(#mask9_21_380)">
<mask id="mask10_21_380" style="mask-type:luminance" maskUnits="userSpaceOnUse" x="6" y="-30" width="220" height="222">
<path d="M84.3594 191.177L6.5052 47.599L148.078 -29.1719L225.937 114.406L84.3594 191.177Z" fill="white"/>
</mask>
<g mask="url(#mask10_21_380)">
<mask id="mask11_21_380" style="mask-type:luminance" maskUnits="userSpaceOnUse" x="6" y="-30" width="220" height="222">
<path d="M6.45832 47.5104L84.3125 191.089L225.891 114.323L148.036 -29.2552L6.45832 47.5104Z" fill="white"/>
</mask>
<g mask="url(#mask11_21_380)">
<path d="M107.344 84.0208C107.344 84.0208 107.344 84.0208 107.385 84.0937C107.385 84.0937 107.385 84.0937 107.422 84.1666C107.422 84.1666 107.458 84.0572 107.385 84.0937C107.385 84.0937 107.312 84.1353 107.458 84.0572C107.531 84.0155 107.458 84.0572 107.385 84.0937L107.312 84.1353C107.422 84.1666 107.385 84.0937 107.312 84.1353L107.349 84.2083C107.391 84.2812 107.391 84.2812 107.349 84.2083C107.349 84.2083 107.349 84.2083 107.422 84.1666C107.422 84.1666 107.422 84.1666 107.349 84.2083C107.349 84.2083 107.208 84.2864 107.281 84.2447L107.349 84.2083C107.24 84.1718 107.464 84.2395 107.391 84.2812C107.422 84.1666 107.344 84.0208 107.344 84.0208C107.422 84.1666 107.422 84.1666 107.422 84.1666C107.422 84.1666 107.281 84.2447 107.349 84.2083C107.495 84.1301 107.495 84.1301 107.495 84.1301C107.464 84.2395 107.422 84.1666 107.495 84.1301L107.536 84.203C107.536 84.203 107.536 84.203 107.495 84.1301C107.458 84.0572 107.458 84.0572 107.458 84.0572C107.458 84.0572 107.568 84.0885 107.495 84.1301L107.568 84.0885C107.641 84.052 107.495 84.1301 107.495 84.1301C107.531 84.0155 107.391 84.2812 107.495 84.1301C107.385 84.0937 107.432 84.3541 107.344 84.0208Z" fill="#FFD600"/>
<path d="M107.344 84.0208C107.344 84.0208 107.344 84.0208 107.385 84.0937C107.385 84.0937 107.385 84.0937 107.422 84.1666C107.422 84.1666 107.458 84.0572 107.385 84.0937C107.385 84.0937 107.312 84.1353 107.458 84.0572C107.531 84.0155 107.458 84.0572 107.385 84.0937L107.312 84.1353C107.422 84.1666 107.385 84.0937 107.312 84.1353L107.349 84.2083C107.391 84.2812 107.391 84.2812 107.349 84.2083C107.349 84.2083 107.349 84.2083 107.422 84.1666C107.422 84.1666 107.422 84.1666 107.349 84.2083C107.349 84.2083 107.208 84.2864 107.281 84.2447L107.349 84.2083C107.24 84.1718 107.464 84.2395 107.391 84.2812C107.422 84.1666 107.344 84.0208 107.344 84.0208C107.422 84.1666 107.422 84.1666 107.422 84.1666C107.422 84.1666 107.281 84.2447 107.349 84.2083C107.495 84.1301 107.495 84.1301 107.495 84.1301C107.464 84.2395 107.422 84.1666 107.495 84.1301L107.536 84.203C107.536 84.203 107.536 84.203 107.495 84.1301C107.458 84.0572 107.458 84.0572 107.458 84.0572C107.458 84.0572 107.568 84.0885 107.495 84.1301L107.568 84.0885C107.641 84.052 107.495 84.1301 107.495 84.1301C107.531 84.0155 107.391 84.2812 107.495 84.1301C107.385 84.0937 107.432 84.3541 107.344 84.0208Z" fill="#FFD600"/>
</g>
</g>
</g>
<path d="M3.35936 165.667C17.8906 158.156 34.8385 156.427 50.9479 156.031C68.2917 155.583 85.5885 156.724 102.839 158.302C120.281 159.932 137.677 161.958 155.167 163.198C163.865 163.786 172.615 164.135 181.359 164.182C189.562 164.234 197.865 164.281 206.068 163.292C214.318 162.307 222.573 159.984 228.896 154.302C234.432 149.307 238.437 141.698 236.901 134.141C236.26 130.974 231.318 131.719 231.318 134.88C231.37 141.599 228.75 147.281 223.562 151.531C217.729 156.328 209.922 158.005 202.656 158.896C186.151 160.823 169.349 160.182 152.797 159.047C119.193 156.672 85.6875 151.187 51.9375 152.375C34.7396 152.917 17.3437 154.896 2.36978 163.984C1.28645 164.63 2.22395 166.26 3.35936 165.667Z" fill="#FFD600"/>
<path d="M9.88541 154.698C24.6094 149.307 39.8281 148.026 55.3958 147.927C56.2344 147.927 56.5312 146.495 55.5937 146.396C40.026 144.073 23.8177 147.776 9.53645 154.052C9.23958 154.203 9.48958 154.844 9.88541 154.698Z" fill="#FFD600"/>
<path d="M223.115 163.344C228.797 162.552 234.036 159.833 237.99 155.734C240.016 153.656 241.745 151.286 242.932 148.667C243.922 146.594 245.75 142.885 244.266 140.76C243.573 139.771 242.391 139.625 241.5 140.417C239.818 141.849 240.068 145.109 239.375 147.182C238.583 149.557 237.448 151.781 236.016 153.807C232.802 158.203 228.208 161.417 222.969 162.849C222.62 162.901 222.771 163.391 223.115 163.344Z" fill="#FFD600"/>
<path d="M10.0937 167.984C15.5573 166.037 21.2604 164.896 27.0156 164.469C28.2031 164.37 28.2031 162.469 27.0156 162.615C20.9792 163.089 15.2292 164.563 9.61978 166.938C9.04686 167.177 9.47395 168.219 10.0937 167.984Z" fill="#FFD600"/>
<mask id="mask12_21_380" style="mask-type:luminance" maskUnits="userSpaceOnUse" x="0" y="152" width="240" height="19">
<path d="M0.682281 152.667H240V170.703H0.682281V152.667Z" fill="white"/>
</mask>
<g mask="url(#mask12_21_380)">
<path d="M235.854 153.537C232.099 159.24 225.495 162.234 219.078 163.99C211.474 166.083 203.583 166.651 195.74 166.604C179.484 166.464 163.135 164.037 146.974 162.328C113.943 158.859 80.7187 155.198 47.4531 155.672C40.0833 155.818 32.6198 156.005 25.3021 156.912C8.66666 159.287 2.58332 164.37 2.20311 164.703C1.82291 165.037 1.4427 165.37 1.10936 165.703C0.682281 166.083 1.10936 166.844 1.68228 166.651C8.3802 164.323 14.9896 162.135 22.0208 160.995C29.6771 159.76 37.4219 159.526 45.1719 159.38C62.1875 159.047 79.25 159.854 96.2135 161.188C113.042 162.516 129.818 164.417 146.547 166.318C162.995 168.172 179.63 170.787 196.214 170.74C210.667 170.74 230.484 168.885 239.135 155.438C240.464 153.391 237.187 151.537 235.854 153.537Z" fill="#FFD600"/>
</g>
<path d="M286.31 66.1114L287.206 65.4447C288.357 64.7781 289.17 64.4447 289.644 64.4447C290.696 64.4447 291.831 65.3927 293.04 67.2781C293.79 68.4604 294.165 69.4031 294.165 70.1114C294.165 70.8197 293.935 71.4135 293.477 71.8822C293.019 72.3562 292.482 72.7781 291.873 73.1531C291.258 73.5281 290.675 73.8822 290.123 74.2156C289.566 74.5489 288.425 74.9864 286.706 75.5281C284.982 76.0697 283.316 76.3406 281.706 76.3406C280.107 76.3406 278.487 76.1322 276.852 75.7156C275.211 75.2989 273.519 74.5906 271.769 73.5906C270.029 72.5906 268.467 71.377 267.081 69.9447C265.706 68.502 264.566 66.6635 263.665 64.4239C262.774 62.1739 262.331 59.7312 262.331 57.0906C262.331 54.4552 262.769 52.0645 263.644 49.9239C264.519 47.7729 265.633 45.9968 266.998 44.5906C268.373 43.1895 269.941 42.0177 271.706 41.0697C275.008 39.252 278.336 38.3406 281.685 38.3406C283.279 38.3406 284.899 38.5854 286.54 39.0697C288.175 39.5593 289.415 40.0593 290.248 40.5697L291.477 41.2781C292.086 41.6427 292.56 41.9395 292.894 42.1739C293.769 42.8979 294.206 43.7104 294.206 44.6114C294.206 45.502 293.852 46.4343 293.144 47.4031C291.821 49.226 290.644 50.1322 289.602 50.1322C288.987 50.1322 288.128 49.7677 287.019 49.0281C285.602 47.877 283.706 47.2989 281.331 47.2989C279.133 47.2989 276.977 48.0645 274.852 49.5906C273.836 50.3302 272.987 51.377 272.31 52.7364C271.628 54.0854 271.29 55.6114 271.29 57.3197C271.29 59.0281 271.628 60.5593 272.31 61.9031C272.987 63.252 273.852 64.3145 274.894 65.0906C276.961 66.5802 279.107 67.3197 281.331 67.3197C282.383 67.3197 283.373 67.1895 284.29 66.9239C285.217 66.6479 285.894 66.377 286.31 66.1114Z" fill="#FFD600"/>
<path d="M314.823 51.9657C315.032 50.0802 316.37 49.1323 318.844 49.1323C320.146 49.1323 321.12 49.2365 321.761 49.4448C322.412 49.6427 322.865 49.9969 323.115 50.5073C323.365 51.0073 323.516 51.4552 323.573 51.8407C323.625 52.2313 323.657 52.8146 323.657 53.5907V71.3198C323.657 72.1011 323.625 72.6844 323.573 73.0698C323.516 73.4605 323.37 73.9136 323.136 74.424C322.662 75.299 321.5 75.7365 319.657 75.7365C317.823 75.7365 316.594 75.5073 315.969 75.049C315.344 74.5907 314.979 73.924 314.886 73.049C313.636 74.8407 311.542 75.7365 308.615 75.7365C305.698 75.7365 302.99 74.4032 300.49 71.7365C297.99 69.0698 296.74 65.9761 296.74 62.4448C296.74 58.9032 297.995 55.8094 300.511 53.1532C303.021 50.5021 305.787 49.174 308.802 49.174C309.953 49.174 311 49.3823 311.948 49.799C312.891 50.2052 313.542 50.5854 313.907 50.9448C314.282 51.2938 314.584 51.6323 314.823 51.9657ZM305.615 62.5073C305.615 63.6219 306.052 64.6271 306.927 65.5282C307.802 66.4188 308.865 66.8615 310.115 66.8615C311.365 66.8615 312.396 66.4136 313.219 65.5073C314.052 64.5907 314.469 63.5854 314.469 62.4865C314.469 61.3927 314.073 60.3719 313.282 59.424C312.49 58.4813 311.427 58.0073 310.094 58.0073C308.761 58.0073 307.677 58.4813 306.844 59.424C306.021 60.3719 305.615 61.3979 305.615 62.5073Z" fill="#FFD600"/>
<path d="M345.838 49.4448C346.489 49.6427 347.026 49.9865 347.443 50.4865C347.859 50.9761 348.068 51.7573 348.068 52.8407C348.068 53.9136 347.745 55.0907 347.109 56.3823C346.469 57.6636 345.536 58.299 344.318 58.299C343.719 58.299 343.135 58.1688 342.568 57.9032C342.01 57.6271 341.276 57.4865 340.359 57.4865C339.453 57.4865 338.609 57.8146 337.818 58.4657C337.026 59.1063 336.63 59.8771 336.63 60.7782V71.424C336.63 72.2052 336.599 72.7886 336.547 73.174C336.489 73.5646 336.328 74.0177 336.068 74.5282C335.552 75.4032 334.234 75.8407 332.109 75.8407C330.484 75.8407 329.318 75.5594 328.609 74.9865C328.068 74.5177 327.76 73.7886 327.693 72.799C327.693 72.4657 327.693 71.9761 327.693 71.3198V53.5282C327.693 52.7677 327.719 52.1896 327.776 51.799C327.828 51.4136 327.974 50.9813 328.213 50.5073C328.682 49.5907 329.995 49.1323 332.151 49.1323C334.177 49.1323 335.448 49.5229 335.963 50.299C336.338 50.8407 336.526 51.3979 336.526 51.9657C336.693 51.7313 336.932 51.4448 337.255 51.1115C337.573 50.7677 338.255 50.3094 339.297 49.7365C340.349 49.1688 341.276 48.8823 342.068 48.8823C342.859 48.8823 343.526 48.924 344.068 49.0073C344.609 49.0907 345.198 49.2365 345.838 49.4448Z" fill="#FFD600"/>
<path d="M368.185 51.9657C368.393 50.0802 369.731 49.1323 372.205 49.1323C373.507 49.1323 374.481 49.2365 375.122 49.4448C375.773 49.6427 376.226 49.9969 376.476 50.5073C376.726 51.0073 376.877 51.4552 376.935 51.8407C376.987 52.2313 377.018 52.8146 377.018 53.5907V71.3198C377.018 72.1011 376.987 72.6844 376.935 73.0698C376.877 73.4605 376.731 73.9136 376.497 74.424C376.023 75.299 374.862 75.7365 373.018 75.7365C371.185 75.7365 369.955 75.5073 369.33 75.049C368.705 74.5907 368.341 73.924 368.247 73.049C366.997 74.8407 364.903 75.7365 361.976 75.7365C359.06 75.7365 356.351 74.4032 353.851 71.7365C351.351 69.0698 350.101 65.9761 350.101 62.4448C350.101 58.9032 351.356 55.8094 353.872 53.1532C356.382 50.5021 359.148 49.174 362.164 49.174C363.315 49.174 364.362 49.3823 365.31 49.799C366.252 50.2052 366.903 50.5854 367.268 50.9448C367.643 51.2938 367.945 51.6323 368.185 51.9657ZM358.976 62.5073C358.976 63.6219 359.414 64.6271 360.289 65.5282C361.164 66.4188 362.226 66.8615 363.476 66.8615C364.726 66.8615 365.757 66.4136 366.58 65.5073C367.414 64.5907 367.83 63.5854 367.83 62.4865C367.83 61.3927 367.435 60.3719 366.643 59.424C365.851 58.4813 364.789 58.0073 363.455 58.0073C362.122 58.0073 361.039 58.4813 360.205 59.424C359.382 60.3719 358.976 61.3979 358.976 62.5073Z" fill="#FFD600"/>
<path d="M389.429 62.4865C389.429 63.9188 389.898 65.0386 390.845 65.8407C391.788 66.6323 392.788 67.0282 393.845 67.0282C394.913 67.0282 395.913 66.7157 396.845 66.0907C397.773 65.4657 398.523 65.1532 399.095 65.1532C400.106 65.1532 401.345 66.049 402.804 67.8407C403.58 68.8146 403.97 69.6896 403.97 70.4657C403.97 71.7573 403.038 72.9605 401.179 74.0698C399.262 75.4188 396.898 76.0907 394.095 76.0907C390.939 76.0907 387.913 74.9605 385.012 72.6948C383.622 71.6115 382.491 70.1688 381.616 68.3615C380.741 66.5594 380.304 64.5646 380.304 62.3823C380.304 60.2052 380.741 58.2313 381.616 56.4657C382.491 54.6896 383.622 53.2573 385.012 52.174C387.814 49.9396 390.809 48.8198 393.991 48.8198C395.267 48.8198 396.512 49.0021 397.72 49.3615C398.939 49.7104 399.845 50.0594 400.429 50.4032L401.241 50.9032C401.835 51.3094 402.309 51.6271 402.658 51.8615C403.533 52.5438 403.97 53.3146 403.97 54.174C403.97 55.0386 403.616 56.0073 402.908 57.0907C401.684 58.9552 400.517 59.8823 399.408 59.8823C398.767 59.8823 397.856 59.5073 396.679 58.7573C396.064 58.1896 395.189 57.9032 394.054 57.9032C392.929 57.9032 391.872 58.3146 390.887 59.1323C389.913 59.9396 389.429 61.0594 389.429 62.4865Z" fill="#FFD600"/>
<path d="M406.503 62.5072C406.503 58.4552 407.92 55.1114 410.753 52.4864C413.597 49.851 416.842 48.5281 420.482 48.5281C424.133 48.5281 427.362 49.8406 430.17 52.4656C432.972 55.0802 434.378 58.4135 434.378 62.4656C434.378 65.2729 433.649 67.7677 432.191 69.9447C430.743 72.1114 428.982 73.7156 426.899 74.7572C424.816 75.7885 422.654 76.2989 420.42 76.2989C418.196 76.2989 416.034 75.752 413.941 74.6531C411.857 73.5593 410.092 71.9395 408.649 69.7989C407.217 67.6479 406.503 65.2156 406.503 62.5072ZM417.086 66.1322C418.17 66.9656 419.263 67.3822 420.378 67.3822C421.503 67.3822 422.618 66.9604 423.732 66.1114C424.842 65.2677 425.399 64.0177 425.399 62.3614C425.399 60.7104 424.868 59.4812 423.816 58.6739C422.774 57.8562 421.638 57.4447 420.42 57.4447C419.211 57.4447 418.076 57.8718 417.024 58.7156C415.982 59.5489 415.461 60.7885 415.461 62.4239C415.461 64.0645 416.003 65.2989 417.086 66.1322Z" fill="#FFD600"/>
<path d="M437.658 41.0281C437.658 40.2521 437.684 39.6687 437.742 39.2781C437.794 38.8927 437.94 38.4396 438.179 37.924C438.648 37.0073 439.96 36.549 442.117 36.549C444.184 36.549 445.471 37.0073 445.971 37.924C446.247 38.4396 446.408 38.8979 446.45 39.299C446.502 39.7052 446.533 40.2937 446.533 41.0698V64.5281C446.533 65.7521 446.627 66.5229 446.825 66.8406C447.033 67.1635 447.481 67.3198 448.179 67.3198C448.872 67.3198 449.335 67.351 449.575 67.4031C449.809 67.4604 450.096 67.6062 450.429 67.8406C451.106 68.2729 451.45 69.4656 451.45 71.424C451.45 73.5646 451.106 74.8719 450.429 75.3406C449.554 75.9344 447.46 76.0333 444.158 75.6323C441.544 75.299 439.851 74.4396 439.075 73.049C438.127 71.3979 437.658 68.7677 437.658 65.1531V41.0281Z" fill="#FFD600"/>
<path d="M263.081 87.1242C263.081 86.3481 263.107 85.7648 263.165 85.3742C263.217 84.9888 263.362 84.5356 263.602 84.02C264.071 83.1034 265.383 82.645 267.54 82.645C269.607 82.645 270.894 83.1034 271.394 84.02C271.67 84.5356 271.831 84.994 271.873 85.395C271.925 85.8013 271.956 86.3898 271.956 87.1659V110.624C271.956 111.848 272.05 112.619 272.248 112.937C272.456 113.26 272.904 113.416 273.602 113.416C274.295 113.416 274.758 113.447 274.998 113.499C275.232 113.556 275.519 113.702 275.852 113.937C276.529 114.369 276.873 115.562 276.873 117.52C276.873 119.661 276.529 120.968 275.852 121.437C274.977 122.03 272.883 122.129 269.581 121.728C266.967 121.395 265.274 120.536 264.498 119.145C263.55 117.494 263.081 114.864 263.081 111.249V87.1242Z" fill="#FFD600"/>
<path d="M278.902 108.603C278.902 104.551 280.319 101.207 283.152 98.5825C285.996 95.9471 289.241 94.6241 292.881 94.6241C296.532 94.6241 299.761 95.9366 302.569 98.5616C305.371 101.176 306.777 104.51 306.777 108.562C306.777 111.369 306.048 113.864 304.59 116.041C303.142 118.207 301.381 119.812 299.298 120.853C297.215 121.885 295.053 122.395 292.819 122.395C290.595 122.395 288.433 121.848 286.34 120.749C284.256 119.655 282.491 118.036 281.048 115.895C279.616 113.744 278.902 111.312 278.902 108.603ZM289.485 112.228C290.569 113.062 291.663 113.478 292.777 113.478C293.902 113.478 295.017 113.056 296.131 112.207C297.241 111.364 297.798 110.114 297.798 108.457C297.798 106.806 297.267 105.577 296.215 104.77C295.173 103.952 294.038 103.541 292.819 103.541C291.61 103.541 290.475 103.968 289.423 104.812C288.381 105.645 287.86 106.885 287.86 108.52C287.86 110.161 288.402 111.395 289.485 112.228Z" fill="#FFD600"/>
<path d="M326.995 118.582C325.703 120.28 323.651 121.124 320.849 121.124C318.057 121.124 315.432 119.832 312.974 117.249C310.526 114.666 309.307 111.655 309.307 108.207C309.307 104.749 310.537 101.723 312.995 99.1241C315.464 96.5304 318.172 95.2283 321.12 95.2283C322.255 95.2283 323.297 95.4471 324.245 95.8741C325.203 96.2908 325.854 96.6814 326.203 97.0408C326.563 97.3898 326.839 97.7179 327.037 98.02C327.146 97.0773 327.495 96.3637 328.078 95.8741C328.672 95.3741 329.63 95.1241 330.953 95.1241C332.271 95.1241 333.229 95.2283 333.828 95.4366C334.438 95.6346 334.87 95.9783 335.12 96.4783C335.38 96.9679 335.537 97.395 335.578 97.77C335.63 98.1346 335.662 98.7023 335.662 99.4783V120.457C335.662 124.343 334.307 127.478 331.599 129.853C328.901 132.239 325.859 133.437 322.474 133.437C319.901 133.437 317.453 132.812 315.12 131.562C312.797 130.312 311.641 129.176 311.641 128.166C311.641 126.843 312.146 125.676 313.162 124.666C313.797 123.957 314.292 123.463 314.641 123.187C315 122.921 315.417 122.791 315.891 122.791C316.359 122.791 316.854 122.999 317.37 123.416C318.979 124.666 320.734 125.291 322.641 125.291C323.917 125.291 324.958 124.78 325.766 123.77C326.583 122.754 326.995 121.536 326.995 120.103V118.582ZM317.974 108.228C317.974 109.327 318.401 110.312 319.266 111.187C320.125 112.062 321.172 112.499 322.412 112.499C323.646 112.499 324.667 112.056 325.474 111.166C326.276 110.28 326.682 109.301 326.682 108.228C326.682 107.161 326.292 106.161 325.516 105.228C324.734 104.301 323.688 103.832 322.37 103.832C321.063 103.832 320 104.291 319.182 105.207C318.375 106.124 317.974 107.135 317.974 108.228Z" fill="#FFD600"/>
<path d="M262.665 149.517H272.748C273.133 149.517 273.42 149.569 273.602 149.663C273.779 149.746 273.899 149.887 273.956 150.08C274.024 150.278 274.06 150.533 274.06 150.85C274.06 151.158 274.024 151.408 273.956 151.6C273.899 151.783 273.795 151.908 273.644 151.975C273.435 152.09 273.128 152.142 272.727 152.142H269.269V161.267C269.269 161.548 269.253 161.757 269.227 161.892C269.211 162.017 269.154 162.173 269.06 162.35C268.977 162.533 268.816 162.658 268.581 162.725C268.357 162.798 268.06 162.83 267.685 162.83C267.31 162.83 267.008 162.798 266.79 162.725C266.566 162.658 266.404 162.533 266.31 162.35C266.227 162.173 266.17 162.012 266.144 161.871C266.128 161.736 266.123 161.528 266.123 161.246V152.142H262.644C262.253 152.142 261.967 152.1 261.79 152.017C261.607 151.923 261.482 151.778 261.415 151.58C261.357 151.387 261.331 151.137 261.331 150.83C261.331 150.512 261.357 150.262 261.415 150.08C261.482 149.887 261.586 149.757 261.727 149.684C261.946 149.574 262.258 149.517 262.665 149.517Z" fill="#FFD600"/>
<path d="M281.529 153.371C281.763 153.444 281.956 153.569 282.112 153.746C282.263 153.929 282.341 154.215 282.341 154.601C282.341 154.976 282.221 155.403 281.987 155.871C281.763 156.33 281.435 156.559 281.008 156.559C280.784 156.559 280.57 156.512 280.362 156.413C280.164 156.319 279.904 156.267 279.57 156.267C279.248 156.267 278.945 156.387 278.654 156.621C278.373 156.845 278.237 157.116 278.237 157.434V161.246C278.237 161.528 278.227 161.736 278.216 161.871C278.201 162.012 278.143 162.173 278.05 162.351C277.852 162.673 277.383 162.83 276.633 162.83C276.05 162.83 275.633 162.726 275.383 162.517C275.185 162.351 275.076 162.095 275.05 161.746C275.05 161.621 275.05 161.444 275.05 161.205V154.851C275.05 154.574 275.055 154.366 275.07 154.226C275.081 154.09 275.138 153.929 275.237 153.746C275.404 153.429 275.867 153.267 276.633 153.267C277.367 153.267 277.826 153.408 278.008 153.684C278.133 153.882 278.195 154.08 278.195 154.288C278.263 154.205 278.352 154.101 278.466 153.976C278.576 153.851 278.82 153.694 279.195 153.496C279.57 153.288 279.893 153.184 280.175 153.184C280.466 153.184 280.706 153.199 280.904 153.226C281.096 153.257 281.305 153.304 281.529 153.371Z" fill="#FFD600"/>
<path d="M289.548 154.288C289.615 153.611 290.095 153.267 290.985 153.267C291.454 153.267 291.803 153.304 292.027 153.371C292.261 153.444 292.423 153.574 292.506 153.767C292.6 153.949 292.657 154.111 292.673 154.246C292.683 154.387 292.694 154.595 292.694 154.871V161.205C292.694 161.496 292.683 161.715 292.673 161.85C292.657 161.991 292.61 162.153 292.527 162.33C292.345 162.637 291.923 162.788 291.256 162.788C290.6 162.788 290.162 162.715 289.944 162.559C289.72 162.392 289.595 162.153 289.569 161.83C289.11 162.47 288.36 162.788 287.319 162.788C286.277 162.788 285.303 162.319 284.402 161.371C283.511 160.413 283.069 159.304 283.069 158.038C283.069 156.778 283.516 155.673 284.423 154.725C285.324 153.767 286.308 153.288 287.381 153.288C287.798 153.288 288.173 153.366 288.506 153.517C288.839 153.658 289.074 153.788 289.214 153.913C289.35 154.038 289.464 154.163 289.548 154.288ZM286.235 158.059C286.235 158.465 286.386 158.824 286.694 159.142C287.011 159.465 287.391 159.621 287.839 159.621C288.298 159.621 288.673 159.465 288.964 159.142C289.266 158.809 289.423 158.449 289.423 158.059C289.423 157.658 289.277 157.288 288.985 156.955C288.704 156.611 288.324 156.434 287.839 156.434C287.365 156.434 286.975 156.611 286.673 156.955C286.381 157.288 286.235 157.658 286.235 158.059Z" fill="#FFD600"/>
<path d="M299.463 153.267C300.671 153.267 301.677 153.736 302.484 154.663C303.286 155.58 303.692 156.705 303.692 158.038V161.225C303.692 161.507 303.677 161.715 303.651 161.85C303.635 161.991 303.588 162.153 303.505 162.33C303.338 162.653 302.864 162.809 302.088 162.809C301.224 162.809 300.734 162.59 300.609 162.142C300.536 161.934 300.505 161.621 300.505 161.205V158.017C300.505 157.517 300.359 157.132 300.067 156.85C299.786 156.574 299.406 156.434 298.921 156.434C298.447 156.434 298.057 156.58 297.755 156.871C297.463 157.163 297.317 157.548 297.317 158.017V161.225C297.317 161.507 297.307 161.715 297.296 161.85C297.281 161.991 297.224 162.153 297.13 162.33C296.963 162.653 296.494 162.809 295.734 162.809C294.968 162.809 294.505 162.653 294.338 162.33C294.239 162.153 294.182 161.991 294.171 161.85C294.156 161.715 294.151 161.496 294.151 161.205V154.788C294.151 154.528 294.156 154.324 294.171 154.184C294.182 154.048 294.239 153.892 294.338 153.725C294.515 153.423 294.984 153.267 295.734 153.267C296.484 153.267 296.942 153.408 297.109 153.684C297.234 153.892 297.296 154.142 297.296 154.434C297.338 154.35 297.442 154.236 297.609 154.08C297.776 153.913 297.942 153.783 298.109 153.684C298.51 153.408 298.963 153.267 299.463 153.267Z" fill="#FFD600"/>
<path d="M305.206 161.975C304.982 161.84 304.872 161.611 304.872 161.288C304.872 160.97 305.102 160.491 305.56 159.85C305.685 159.642 305.893 159.538 306.185 159.538C306.487 159.538 306.893 159.694 307.393 159.996C307.904 160.288 308.372 160.434 308.789 160.434C309.523 160.434 309.893 160.288 309.893 159.996C309.893 159.778 309.487 159.611 308.685 159.496C307.919 159.387 307.164 159.1 306.414 158.642C306.065 158.423 305.773 158.08 305.539 157.621C305.299 157.153 305.185 156.595 305.185 155.955C305.185 154.038 306.497 153.08 309.122 153.08C309.982 153.08 310.872 153.288 311.789 153.705C312.206 153.903 312.414 154.142 312.414 154.434C312.414 154.725 312.279 155.09 312.018 155.517C311.753 155.934 311.482 156.142 311.206 156.142C311.049 156.142 310.779 156.054 310.393 155.871C310.003 155.679 309.581 155.58 309.122 155.58C308.398 155.58 308.039 155.72 308.039 155.996C308.039 156.361 308.445 156.595 309.268 156.705C310.07 156.788 310.852 157.017 311.602 157.392C311.945 157.559 312.237 157.85 312.477 158.267C312.711 158.684 312.831 159.215 312.831 159.85C312.831 160.475 312.711 161.012 312.477 161.455C312.237 161.887 311.914 162.215 311.497 162.434C310.716 162.809 309.747 162.996 308.581 162.996C307.414 162.996 306.289 162.658 305.206 161.975Z" fill="#FFD600"/>
<path d="M314.013 165.434V154.83C314.013 154.554 314.019 154.35 314.034 154.225C314.045 154.09 314.102 153.929 314.201 153.746C314.368 153.429 314.769 153.267 315.409 153.267C316.045 153.267 316.477 153.35 316.701 153.517C316.92 153.673 317.055 153.908 317.097 154.225C317.555 153.6 318.274 153.288 319.263 153.288C320.248 153.288 321.18 153.757 322.055 154.684C322.941 155.616 323.388 156.699 323.388 157.934C323.388 159.173 322.951 160.257 322.076 161.184C321.201 162.116 320.263 162.58 319.263 162.58C318.274 162.58 317.56 162.304 317.118 161.746V165.413C317.118 165.689 317.102 165.892 317.076 166.017C317.06 166.153 317.003 166.309 316.909 166.475C316.826 166.653 316.67 166.778 316.451 166.85C316.243 166.934 315.951 166.975 315.576 166.975C315.201 166.975 314.899 166.934 314.68 166.85C314.456 166.778 314.295 166.663 314.201 166.496C314.102 166.33 314.045 166.173 314.034 166.038C314.019 165.913 314.013 165.71 314.013 165.434ZM317.597 156.892C317.316 157.215 317.18 157.569 317.18 157.955C317.18 158.345 317.316 158.699 317.597 159.017C317.888 159.34 318.253 159.496 318.701 159.496C319.144 159.496 319.519 159.34 319.826 159.017C320.128 158.699 320.284 158.345 320.284 157.955C320.284 157.554 320.138 157.194 319.847 156.871C319.555 156.554 319.17 156.392 318.701 156.392C318.243 156.392 317.873 156.559 317.597 156.892Z" fill="#FFD600"/>
<path d="M324.3 158.059C324.3 156.601 324.805 155.408 325.821 154.476C326.831 153.533 327.993 153.059 329.3 153.059C330.602 153.059 331.758 153.533 332.758 154.476C333.769 155.408 334.279 156.595 334.279 158.038C334.279 159.038 334.013 159.934 333.487 160.726C332.972 161.507 332.342 162.08 331.592 162.455C330.852 162.819 330.081 162.996 329.279 162.996C328.487 162.996 327.717 162.804 326.967 162.413C326.217 162.012 325.581 161.429 325.071 160.663C324.555 159.903 324.3 159.033 324.3 158.059ZM328.092 159.371C328.477 159.663 328.868 159.809 329.258 159.809C329.659 159.809 330.06 159.658 330.467 159.351C330.868 159.048 331.071 158.601 331.071 158.017C331.071 157.423 330.883 156.976 330.508 156.684C330.133 156.392 329.722 156.246 329.279 156.246C328.847 156.246 328.446 156.403 328.071 156.705C327.696 156.996 327.508 157.444 327.508 158.038C327.508 158.621 327.701 159.069 328.092 159.371Z" fill="#FFD600"/>
<path d="M341.934 153.371C342.168 153.444 342.361 153.569 342.517 153.746C342.668 153.929 342.746 154.215 342.746 154.601C342.746 154.976 342.626 155.403 342.392 155.871C342.168 156.33 341.84 156.559 341.413 156.559C341.189 156.559 340.975 156.512 340.767 156.413C340.569 156.319 340.309 156.267 339.975 156.267C339.652 156.267 339.35 156.387 339.059 156.621C338.777 156.845 338.642 157.116 338.642 157.434V161.246C338.642 161.528 338.632 161.736 338.621 161.871C338.606 162.012 338.548 162.173 338.454 162.351C338.257 162.673 337.788 162.83 337.038 162.83C336.454 162.83 336.038 162.726 335.788 162.517C335.59 162.351 335.481 162.095 335.454 161.746C335.454 161.621 335.454 161.444 335.454 161.205V154.851C335.454 154.574 335.46 154.366 335.475 154.226C335.486 154.09 335.543 153.929 335.642 153.746C335.809 153.429 336.272 153.267 337.038 153.267C337.772 153.267 338.231 153.408 338.413 153.684C338.538 153.882 338.6 154.08 338.6 154.288C338.668 154.205 338.757 154.101 338.871 153.976C338.981 153.851 339.225 153.694 339.6 153.496C339.975 153.288 340.298 153.184 340.579 153.184C340.871 153.184 341.111 153.199 341.309 153.226C341.501 153.257 341.71 153.304 341.934 153.371Z" fill="#FFD600"/>
<path d="M349.286 156.476L348.119 156.413V158.913C348.119 159.236 348.166 159.47 348.265 159.621C348.375 159.762 348.567 159.83 348.848 159.83C349.125 159.83 349.338 159.845 349.494 159.871C349.645 159.887 349.807 159.944 349.973 160.038C350.25 160.194 350.39 160.595 350.39 161.246C350.39 162.012 350.223 162.476 349.89 162.642C349.708 162.726 349.546 162.783 349.411 162.809C349.27 162.824 349.067 162.83 348.807 162.83C347.541 162.83 346.583 162.548 345.932 161.976C345.276 161.408 344.953 160.449 344.953 159.101V156.413C344.729 156.444 344.479 156.455 344.203 156.455C343.937 156.455 343.713 156.361 343.536 156.163C343.369 155.955 343.286 155.601 343.286 155.101C343.286 154.601 343.312 154.241 343.369 154.017C343.437 153.798 343.526 153.637 343.64 153.538C343.833 153.387 344.067 153.309 344.348 153.309L344.953 153.371V151.496C344.953 151.22 344.958 151.017 344.973 150.892C345 150.757 345.062 150.611 345.161 150.455C345.312 150.153 345.776 149.996 346.557 149.996C347.375 149.996 347.859 150.22 348.015 150.663C348.083 150.861 348.119 151.173 348.119 151.601V153.371C348.645 153.33 349.041 153.309 349.307 153.309C349.583 153.309 349.791 153.319 349.932 153.33C350.067 153.345 350.229 153.403 350.411 153.496C350.729 153.663 350.89 154.132 350.89 154.892C350.89 155.658 350.723 156.121 350.39 156.288C350.208 156.387 350.046 156.444 349.911 156.455C349.77 156.47 349.562 156.476 349.286 156.476Z" fill="#FFD600"/>
<path d="M361.097 156.913C361.097 157.653 360.91 158.199 360.535 158.559C360.17 158.923 359.769 159.101 359.326 159.101H355.035C355.035 159.434 355.228 159.72 355.618 159.955C356.019 160.179 356.42 160.288 356.826 160.288C357.519 160.288 358.066 160.22 358.472 160.08L358.681 159.996C358.957 159.871 359.191 159.809 359.389 159.809C359.774 159.809 360.108 160.08 360.389 160.621C360.556 160.944 360.639 161.22 360.639 161.455C360.639 162.528 359.347 163.059 356.764 163.059C355.873 163.059 355.082 162.903 354.389 162.601C353.691 162.298 353.149 161.887 352.764 161.371C351.998 160.403 351.618 159.309 351.618 158.101C351.618 156.574 352.108 155.351 353.097 154.434C354.082 153.517 355.311 153.059 356.785 153.059C358.462 153.059 359.701 153.658 360.493 154.851C360.894 155.476 361.097 156.163 361.097 156.913ZM357.285 157.434C357.743 157.434 357.972 157.241 357.972 156.851C357.972 156.574 357.858 156.351 357.639 156.184C357.431 156.017 357.129 155.934 356.743 155.934C356.353 155.934 355.962 156.095 355.576 156.413C355.186 156.736 354.993 157.074 354.993 157.434H357.285Z" fill="#FFD600"/>
<path d="M376.081 156.913C376.081 157.653 375.893 158.199 375.518 158.559C375.154 158.923 374.752 159.101 374.31 159.101H370.018C370.018 159.434 370.211 159.72 370.601 159.955C371.002 160.179 371.404 160.288 371.81 160.288C372.502 160.288 373.049 160.22 373.456 160.08L373.664 159.996C373.94 159.871 374.174 159.809 374.372 159.809C374.758 159.809 375.091 160.08 375.372 160.621C375.539 160.944 375.622 161.22 375.622 161.455C375.622 162.528 374.331 163.059 371.747 163.059C370.857 163.059 370.065 162.903 369.372 162.601C368.674 162.298 368.133 161.887 367.747 161.371C366.982 160.403 366.601 159.309 366.601 158.101C366.601 156.574 367.091 155.351 368.081 154.434C369.065 153.517 370.294 153.059 371.768 153.059C373.445 153.059 374.685 153.658 375.476 154.851C375.877 155.476 376.081 156.163 376.081 156.913ZM372.268 157.434C372.726 157.434 372.956 157.241 372.956 156.851C372.956 156.574 372.841 156.351 372.622 156.184C372.414 156.017 372.112 155.934 371.726 155.934C371.336 155.934 370.945 156.095 370.56 156.413C370.169 156.736 369.976 157.074 369.976 157.434H372.268Z" fill="#FFD600"/>
<path d="M385.064 160.142H390.001C390.402 160.142 390.694 160.194 390.876 160.288C391.054 160.371 391.173 160.512 391.231 160.705C391.298 160.903 391.335 161.158 391.335 161.475C391.335 161.798 391.298 162.054 391.231 162.246C391.173 162.444 391.069 162.574 390.918 162.642C390.694 162.767 390.382 162.83 389.981 162.83H383.439C382.606 162.83 382.111 162.6 381.96 162.142C381.887 161.949 381.856 161.637 381.856 161.205V151.121C381.856 150.845 381.861 150.637 381.876 150.496C381.887 150.361 381.944 150.199 382.043 150.017C382.22 149.699 382.694 149.538 383.46 149.538C384.304 149.538 384.814 149.762 384.981 150.205C385.033 150.413 385.064 150.725 385.064 151.142V160.142Z" fill="#FFD600"/>
<path d="M392.233 158.059C392.233 156.601 392.738 155.408 393.754 154.476C394.764 153.533 395.925 153.059 397.233 153.059C398.535 153.059 399.691 153.533 400.691 154.476C401.701 155.408 402.212 156.595 402.212 158.038C402.212 159.038 401.946 159.934 401.42 160.726C400.905 161.507 400.274 162.08 399.524 162.455C398.785 162.819 398.014 162.996 397.212 162.996C396.42 162.996 395.649 162.804 394.899 162.413C394.149 162.012 393.514 161.429 393.004 160.663C392.488 159.903 392.233 159.033 392.233 158.059ZM396.024 159.371C396.41 159.663 396.8 159.809 397.191 159.809C397.592 159.809 397.993 159.658 398.399 159.351C398.8 159.048 399.004 158.601 399.004 158.017C399.004 157.423 398.816 156.976 398.441 156.684C398.066 156.392 397.655 156.246 397.212 156.246C396.78 156.246 396.379 156.403 396.004 156.705C395.629 156.996 395.441 157.444 395.441 158.038C395.441 158.621 395.634 159.069 396.024 159.371Z" fill="#FFD600"/>
<path d="M409.45 161.642C408.991 162.241 408.252 162.538 407.241 162.538C406.241 162.538 405.304 162.08 404.429 161.163C403.554 160.236 403.116 159.153 403.116 157.913C403.116 156.679 403.554 155.595 404.429 154.663C405.314 153.736 406.288 153.267 407.346 153.267C407.747 153.267 408.116 153.345 408.45 153.496C408.794 153.653 409.033 153.788 409.158 153.913C409.283 154.038 409.387 154.158 409.471 154.267C409.497 153.923 409.616 153.663 409.825 153.496C410.044 153.319 410.392 153.225 410.866 153.225C411.335 153.225 411.679 153.267 411.887 153.35C412.106 153.423 412.262 153.548 412.346 153.725C412.439 153.892 412.497 154.048 412.512 154.184C412.538 154.309 412.554 154.512 412.554 154.788V162.309C412.554 163.694 412.064 164.814 411.096 165.663C410.122 166.522 409.033 166.955 407.825 166.955C406.908 166.955 406.033 166.725 405.2 166.267C404.366 165.819 403.95 165.418 403.95 165.059C403.95 164.585 404.127 164.168 404.491 163.809C404.726 163.559 404.908 163.382 405.033 163.288C405.158 163.189 405.304 163.142 405.471 163.142C405.637 163.142 405.809 163.21 405.991 163.35C406.575 163.793 407.205 164.017 407.887 164.017C408.346 164.017 408.721 163.835 409.012 163.475C409.304 163.111 409.45 162.684 409.45 162.184V161.642ZM406.221 157.934C406.221 158.324 406.372 158.679 406.679 158.996C406.981 159.304 407.356 159.455 407.804 159.455C408.247 159.455 408.616 159.298 408.908 158.975C409.2 158.658 409.346 158.309 409.346 157.934C409.346 157.548 409.2 157.184 408.908 156.85C408.627 156.517 408.252 156.35 407.783 156.35C407.325 156.35 406.95 156.517 406.658 156.85C406.366 157.173 406.221 157.533 406.221 157.934Z" fill="#FFD600"/>
<path d="M413.999 154.871C413.999 154.595 414.004 154.387 414.02 154.246C414.03 154.111 414.088 153.944 414.186 153.746C414.353 153.444 414.817 153.288 415.582 153.288C416.166 153.288 416.582 153.392 416.832 153.6C417.041 153.767 417.145 154.028 417.145 154.371C417.155 154.496 417.166 154.673 417.166 154.892V161.246C417.166 161.528 417.155 161.736 417.145 161.871C417.129 162.012 417.072 162.173 416.978 162.35C416.811 162.673 416.343 162.83 415.582 162.83C414.817 162.83 414.353 162.663 414.186 162.33C414.088 162.153 414.03 161.996 414.02 161.871C414.004 161.736 413.999 161.517 413.999 161.225V154.871ZM415.145 152.371C415.145 152.371 414.963 152.413 414.603 152.496C414.228 152.496 413.926 152.142 413.707 151.434C413.608 151.142 413.561 150.892 413.561 150.684C413.561 150.475 413.593 150.324 413.666 150.225C413.791 150.059 414.009 149.929 414.332 149.83L417.332 148.913C417.65 148.83 417.832 148.788 417.874 148.788C418.233 148.788 418.525 149.142 418.749 149.85C418.843 150.142 418.895 150.392 418.895 150.6C418.895 150.798 418.858 150.949 418.791 151.059C418.666 151.215 418.442 151.34 418.124 151.434L415.145 152.371Z" fill="#FFD600"/>
<path d="M418.687 161.975C418.463 161.84 418.354 161.611 418.354 161.288C418.354 160.97 418.583 160.491 419.041 159.85C419.166 159.642 419.375 159.538 419.666 159.538C419.968 159.538 420.375 159.694 420.875 159.996C421.385 160.288 421.854 160.434 422.27 160.434C423.005 160.434 423.375 160.288 423.375 159.996C423.375 159.778 422.968 159.611 422.166 159.496C421.401 159.387 420.645 159.1 419.895 158.642C419.546 158.423 419.255 158.08 419.02 157.621C418.781 157.153 418.666 156.595 418.666 155.955C418.666 154.038 419.979 153.08 422.604 153.08C423.463 153.08 424.354 153.288 425.27 153.705C425.687 153.903 425.895 154.142 425.895 154.434C425.895 154.725 425.76 155.09 425.5 155.517C425.234 155.934 424.963 156.142 424.687 156.142C424.531 156.142 424.26 156.054 423.875 155.871C423.484 155.679 423.062 155.58 422.604 155.58C421.88 155.58 421.52 155.72 421.52 155.996C421.52 156.361 421.927 156.595 422.75 156.705C423.552 156.788 424.333 157.017 425.083 157.392C425.427 157.559 425.718 157.85 425.958 158.267C426.192 158.684 426.312 159.215 426.312 159.85C426.312 160.475 426.192 161.012 425.958 161.455C425.718 161.887 425.395 162.215 424.979 162.434C424.198 162.809 423.229 162.996 422.062 162.996C420.895 162.996 419.77 162.658 418.687 161.975Z" fill="#FFD600"/>
<path d="M433.037 156.476L431.87 156.413V158.913C431.87 159.236 431.917 159.47 432.016 159.621C432.125 159.762 432.318 159.83 432.599 159.83C432.875 159.83 433.089 159.845 433.245 159.871C433.396 159.887 433.557 159.944 433.724 160.038C434 160.194 434.141 160.595 434.141 161.246C434.141 162.012 433.974 162.476 433.641 162.642C433.458 162.726 433.297 162.783 433.162 162.809C433.021 162.824 432.818 162.83 432.557 162.83C431.292 162.83 430.333 162.548 429.682 161.976C429.026 161.408 428.703 160.449 428.703 159.101V156.413C428.479 156.444 428.229 156.455 427.953 156.455C427.688 156.455 427.464 156.361 427.287 156.163C427.12 155.955 427.037 155.601 427.037 155.101C427.037 154.601 427.063 154.241 427.12 154.017C427.188 153.798 427.276 153.637 427.391 153.538C427.583 153.387 427.818 153.309 428.099 153.309L428.703 153.371V151.496C428.703 151.22 428.708 151.017 428.724 150.892C428.75 150.757 428.813 150.611 428.912 150.455C429.063 150.153 429.526 149.996 430.307 149.996C431.125 149.996 431.609 150.22 431.766 150.663C431.833 150.861 431.87 151.173 431.87 151.601V153.371C432.396 153.33 432.792 153.309 433.057 153.309C433.333 153.309 433.542 153.319 433.682 153.33C433.818 153.345 433.979 153.403 434.162 153.496C434.479 153.663 434.641 154.132 434.641 154.892C434.641 155.658 434.474 156.121 434.141 156.288C433.958 156.387 433.797 156.444 433.662 156.455C433.521 156.47 433.313 156.476 433.037 156.476Z" fill="#FFD600"/>
<path d="M435.64 154.871C435.64 154.595 435.645 154.387 435.66 154.246C435.671 154.111 435.728 153.944 435.827 153.746C435.994 153.444 436.457 153.288 437.223 153.288C437.806 153.288 438.223 153.392 438.473 153.601C438.681 153.767 438.785 154.028 438.785 154.371C438.796 154.496 438.806 154.673 438.806 154.892V161.246C438.806 161.528 438.796 161.736 438.785 161.871C438.77 162.012 438.712 162.173 438.619 162.351C438.452 162.673 437.983 162.83 437.223 162.83C436.457 162.83 435.994 162.663 435.827 162.33C435.728 162.153 435.671 161.996 435.66 161.871C435.645 161.736 435.64 161.517 435.64 161.226V154.871ZM438.619 151.496C438.535 151.679 438.374 151.804 438.14 151.871C437.9 151.944 437.598 151.976 437.223 151.976C436.848 151.976 436.541 151.944 436.306 151.871C436.082 151.804 435.921 151.679 435.827 151.496C435.728 151.319 435.671 151.158 435.66 151.017C435.645 150.882 435.64 150.673 435.64 150.392C435.64 150.101 435.645 149.887 435.66 149.746C435.671 149.611 435.728 149.455 435.827 149.288C435.994 148.97 436.457 148.809 437.223 148.809C437.983 148.809 438.452 148.97 438.619 149.288C438.712 149.47 438.77 149.632 438.785 149.767C438.796 149.908 438.806 150.116 438.806 150.392C438.806 150.673 438.796 150.882 438.785 151.017C438.77 151.158 438.712 151.319 438.619 151.496Z" fill="#FFD600"/>
<path d="M443.265 158.059C443.265 158.574 443.432 158.97 443.765 159.246C444.098 159.528 444.453 159.663 444.828 159.663C445.213 159.663 445.578 159.554 445.911 159.33C446.244 159.111 446.515 158.996 446.723 158.996C447.083 158.996 447.526 159.319 448.057 159.955C448.333 160.319 448.473 160.637 448.473 160.913C448.473 161.371 448.14 161.804 447.473 162.205C446.776 162.679 445.932 162.913 444.932 162.913C443.807 162.913 442.723 162.512 441.682 161.705C441.182 161.319 440.77 160.804 440.453 160.163C440.145 159.512 439.994 158.798 439.994 158.017C439.994 157.241 440.145 156.533 440.453 155.892C440.77 155.257 441.182 154.741 441.682 154.35C442.682 153.559 443.75 153.163 444.89 153.163C445.348 153.163 445.791 153.225 446.223 153.35C446.666 153.475 446.994 153.6 447.203 153.725L447.473 153.892C447.692 154.048 447.869 154.163 447.994 154.246C448.312 154.486 448.473 154.762 448.473 155.08C448.473 155.387 448.338 155.736 448.078 156.121C447.645 156.788 447.229 157.121 446.828 157.121C446.604 157.121 446.276 156.986 445.848 156.705C445.625 156.512 445.312 156.413 444.911 156.413C444.505 156.413 444.13 156.559 443.786 156.85C443.437 157.132 443.265 157.533 443.265 158.059Z" fill="#FFD600"/>
<path d="M455.852 154.288C455.919 153.611 456.399 153.267 457.289 153.267C457.758 153.267 458.107 153.304 458.331 153.371C458.565 153.444 458.727 153.574 458.81 153.767C458.904 153.949 458.961 154.111 458.977 154.246C458.987 154.387 458.997 154.595 458.997 154.871V161.205C458.997 161.496 458.987 161.715 458.977 161.85C458.961 161.991 458.914 162.153 458.831 162.33C458.649 162.637 458.227 162.788 457.56 162.788C456.904 162.788 456.466 162.715 456.247 162.559C456.024 162.392 455.899 162.153 455.872 161.83C455.414 162.47 454.664 162.788 453.622 162.788C452.581 162.788 451.607 162.319 450.706 161.371C449.815 160.413 449.372 159.304 449.372 158.038C449.372 156.778 449.82 155.673 450.727 154.725C451.628 153.767 452.612 153.288 453.685 153.288C454.102 153.288 454.477 153.366 454.81 153.517C455.143 153.658 455.378 153.788 455.518 153.913C455.654 154.038 455.768 154.163 455.852 154.288ZM452.539 158.059C452.539 158.465 452.69 158.824 452.997 159.142C453.315 159.465 453.695 159.621 454.143 159.621C454.602 159.621 454.977 159.465 455.268 159.142C455.57 158.809 455.727 158.449 455.727 158.059C455.727 157.658 455.581 157.288 455.289 156.955C455.008 156.611 454.628 156.434 454.143 156.434C453.669 156.434 453.279 156.611 452.977 156.955C452.685 157.288 452.539 157.658 452.539 158.059Z" fill="#FFD600"/>
</svg>
